# xmcd
#
# Track frame offsets:
#	150
#	20744
#	34618
#	56005
#	76906
#	90070
#	108307
#	124369
#	142786
#	162369
#	182220
#	201009
#
# Disc length: 2953 seconds
#
# Revision: 0
# Processed by: cddbd v1.4PL0 Copyright (c) Steve Scherf et al.
# Submitted via: EZCDDA 4.3.3.2
#
DISCID=940b870c
DTITLE=Garth Brooks - Scarecrow
DYEAR=1900
DGENRE=
TTITLE0=Why Ain't I Running
TTITLE1=Beer Run
TTITLE2=Wrapped Up In You
TTITLE3=The Storm
TTITLE4=Thicker Than Blood
TTITLE5=Big Money
TTITLE6=Squeeze Me In
TTITLE7=Mr. Midnight
TTITLE8=Pushing Up Daisies
TTITLE9=Rodeo Or Mexico
TTITLE10=Dont Cross the River
TTITLE11=When You Come Back To Me Again
EXTD=
EXTT0=
EXTT1=
EXTT2=
EXTT3=
EXTT4=
EXTT5=
EXTT6=
EXTT7=
EXTT8=
EXTT9=
EXTT10=
EXTT11=
PLAYORDER=
